<svg xmlns="http://www.w3.org/2000/svg" width="200" height="200" viewBox="0 0 200 200"><rect width="100%" height="100%" fill="#ffa8e4"/><path fill="#ffffff" d="M49.945 117.74v-11.69q-2.23-.73-3.94-1.94-1.72-1.22-2.89-2.81-1.18-1.59-1.78-3.48-.6-1.88-.6-3.94 0-2.89.97-5.11t2.66-3.71q1.69-1.5 3.99-2.26 2.3-.76 5-.76 1.25 0 2.61.21 1.36.21 2.69.69 1.34.48 2.58 1.26 1.23.78 2.24 1.96l-1.74 2.2q-.37.57-1.1.57-.57 0-1.18-.35-.61-.34-1.42-.75-.81-.42-1.91-.76-1.1-.35-2.6-.35-3.26 0-5.03 1.83-1.78 1.82-1.78 5.52 0 1.67.51 3.14.52 1.47 1.63 2.63 1.12 1.17 2.88 1.97 1.77.81 4.27 1.18v14.75h-6.06Zm11.47-14.53q0-2.2.85-4.14.84-1.93 2.29-3.39 1.44-1.46 3.38-2.29 1.93-.84 4.14-.84 2.2 0 4.16.84 1.96.83 3.41 2.29 1.44 1.46 2.29 3.39.84 1.94.84 4.14 0 2.18-.84 4.11-.85 1.92-2.29 3.36-1.45 1.45-3.41 2.28-1.96.84-4.16.84-2.21 0-4.14-.84-1.94-.83-3.38-2.28-1.45-1.44-2.29-3.36-.85-1.93-.85-4.11Zm17.69-21.29h5.88l-6.05 6.4q-.47.49-.9.67-.43.18-1.11.18h-3.63l3.48-5.95q.37-.64.86-.97.49-.33 1.47-.33Zm32.68 31.7h.91v2.23q0 .47-.03.87-.02.41-.27.71-.24.31-.82.48-.57.17-1.67.17-2.38 0-4.92-.76-2.53-.76-4.96-2.15-2.45 1.39-4.98 2.15-2.54.76-4.89.76-1.13 0-1.7-.17-.58-.17-.82-.48-.25-.3-.27-.71-.03-.4-.03-.87v-2.23h.91q.76 0 1.63-.06.87-.06 1.8-.24.93-.19 1.9-.53.96-.34 1.9-.93-1.28-1.18-2.34-2.51-1.07-1.34-1.83-2.79-.76-1.46-1.19-3.02-.43-1.55-.43-3.17 0-1.76.68-3.25.67-1.48 1.97-2.56 1.3-1.08 3.23-1.69 1.94-.61 4.46-.61 2.53 0 4.45.61 1.92.61 3.22 1.69 1.3 1.08 1.97 2.56.68 1.49.68 3.25 0 1.62-.43 3.17-.43 1.56-1.19 3.02-.76 1.45-1.83 2.79-1.06 1.33-2.34 2.51.94.59 1.9.93.97.34 1.9.53.93.18 1.8.24t1.63.06Zm5.47-10.41q0-2.2.84-4.14.85-1.93 2.29-3.39 1.45-1.46 3.38-2.29 1.94-.84 4.14-.84 2.21 0 4.17.84 1.96.83 3.4 2.29 1.45 1.46 2.29 3.39.85 1.94.85 4.14 0 2.18-.85 4.11-.84 1.92-2.29 3.36-1.44 1.45-3.4 2.28-1.96.84-4.17.84-2.2 0-4.14-.84-1.93-.83-3.38-2.28-1.44-1.44-2.29-3.36-.84-1.93-.84-4.11Zm7.25-21.29h5.66q1 0 1.49.33t.83.97l3.51 5.95h-3.46q-.68 0-1.11-.18-.43-.18-.87-.67l-6.05-6.4Zm13.79 6.44-1.76-2.2q1-1.18 2.24-1.96 1.24-.78 2.57-1.26 1.34-.48 2.71-.69 1.37-.21 2.62-.21 2.67 0 4.97.76 2.31.76 4 2.26 1.69 1.49 2.66 3.71.96 2.22.96 5.11 0 2.06-.6 3.94-.6 1.89-1.76 3.48-1.16 1.59-2.88 2.81-1.71 1.21-3.94 1.94v11.69h-6.06v-14.75q2.5-.37 4.27-1.18 1.76-.8 2.88-1.97 1.11-1.16 1.63-2.63.51-1.47.51-3.14 0-3.7-1.79-5.52-1.79-1.83-5.02-1.83-1.52 0-2.61.35-1.09.34-1.9.76-.81.41-1.43.75-.63.35-1.17.35-.76 0-1.1-.57Z"/></svg>